<?xml version="1.0" standalone="no"?>
<!DOCTYPE svg PUBLIC "-//W3C//DTD SVG 20010904//EN"
 "http://www.w3.org/TR/2001/REC-SVG-20010904/DTD/svg10.dtd">
<svg version="1.0" xmlns="http://www.w3.org/2000/svg"
 width="600.000000pt" height="600.000000pt" viewBox="0 0 600.000000 600.000000"
 preserveAspectRatio="xMidYMid meet">

<g transform="translate(0.000000,600.000000) scale(0.100000,-0.100000)"
fill="#000000" stroke="none">
<path d="M0 3000 l0 -3000 3000 0 3000 0 0 3000 0 3000 -3000 0 -3000 0 0
-3000z m3099 2583 c18 -22 19 -29 8 -47 -8 -13 -11 -42 -9 -78 l4 -58 39 0 39
0 0 45 c0 45 0 45 -36 45 -21 0 -33 4 -29 10 3 6 19 10 36 10 27 0 29 3 31 43
l1 42 4 -42 4 -43 45 0 c44 0 44 0 44 35 0 19 5 35 10 35 6 0 10 -16 10 -35 0
-35 0 -35 45 -35 l45 0 2 38 1 37 4 -37 c4 -38 5 -38 49 -38 44 0 44 0 45 38
l2 37 6 -38 c3 -21 9 -38 14 -37 4 0 25 0 47 0 l40 0 2 43 1 42 4 -42 4 -43
43 0 c40 0 43 2 53 38 l11 37 -1 -35 c-2 -33 0 -35 35 -41 35 -5 37 -5 43 30
4 20 11 42 17 49 16 19 38 -4 38 -39 0 -19 5 -29 15 -29 8 0 15 -4 15 -10 0
-5 -9 -10 -19 -10 -28 0 -31 -8 -32 -106 -1 -71 2 -90 15 -100 15 -11 15 -12
0 -18 -12 -5 -15 -18 -14 -54 6 -111 -1 -272 -10 -272 -6 0 -10 27 -10 61 l0
60 -47 -3 c-41 -3 -48 -6 -54 -28 l-7 -25 -1 27 c-1 26 -3 27 -46 25 -37 -2
-45 -5 -46 -22 0 -19 -1 -18 -11 3 -9 18 -20 22 -57 23 -25 0 -66 4 -91 8
l-45 8 43 2 43 1 -3 42 -3 42 -95 -1 -95 -2 -6 -38 -6 -38 -2 36 c0 20 -3 38
-5 40 -3 3 -23 3 -45 1 -40 -4 -41 -5 -43 -46 l-1 -41 -6 44 c-5 40 -9 45 -36
48 -43 6 -44 13 -2 13 l37 0 0 45 c0 42 -2 45 -27 46 l-28 2 28 4 c25 4 27 8
27 54 l0 49 -40 0 -39 0 -3 -137 c-3 -130 -4 -138 -23 -138 -15 0 -21 8 -23
32 l-3 31 -85 1 -84 0 0 -40 c0 -24 -4 -38 -10 -34 -5 3 -10 22 -10 41 l0 34
-92 -3 -93 -2 -3 -52 -3 -53 -55 0 c-44 0 -54 -3 -55 -17 -1 -17 -2 -17 -6 0
-4 15 -13 17 -51 15 -45 -3 -47 -4 -53 -38 l-6 -35 -2 38 c-1 35 -3 37 -35 37
-46 0 -66 -9 -59 -26 7 -20 -6 -66 -17 -59 -5 3 -6 42 -3 90 6 82 5 85 -18 94
l-24 10 23 7 c18 5 22 14 22 45 0 34 -3 39 -27 46 l-28 6 28 10 c27 9 27 9 27
102 0 91 -1 93 -25 99 -28 7 -33 21 -10 30 8 3 15 17 15 31 0 29 27 45 41 24
5 -8 6 -26 3 -41 -5 -27 -4 -28 40 -28 l46 0 2 38 1 37 4 -37 4 -38 50 0 49 0
1 38 2 37 6 -40 c6 -40 6 -40 51 -40 l45 0 6 45 6 45 1 -41 2 -42 44 -4 45 -3
10 45 9 45 -1 -40 c-2 -45 -2 -45 53 -45 l40 0 2 43 1 42 4 -42 4 -43 45 0 44
0 2 43 1 42 4 -42 c4 -40 6 -43 34 -43 16 0 29 -4 29 -10 0 -5 -13 -10 -30
-10 -29 0 -30 -2 -30 -45 0 -45 0 -45 35 -45 l35 0 0 64 c0 36 -4 68 -10 71
-15 9 -12 36 7 57 21 24 28 23 52 -9z m2011 -204 c0 -7 -29 -40 -65 -75 -36
-35 -65 -71 -65 -80 0 -20 -54 -74 -74 -74 -16 0 -46 48 -46 75 0 11 6 15 18
11 40 -13 122 41 177 117 26 36 55 49 55 26z m-4053 -31 c12 -18 20 -34 18
-36 -8 -8 -76 49 -70 59 11 17 30 9 52 -23z m966 -82 c51 -21 87 -70 87 -118
0 -75 -81 -147 -148 -132 -36 9 -90 60 -97 95 -9 40 11 101 42 131 44 40 66
45 116 24z m2187 -9 c33 -16 70 -73 70 -109 0 -56 -53 -124 -105 -134 -69 -13
-145 51 -145 121 1 50 34 109 71 128 35 17 63 16 109 -6z m-3057 2 c12 -6 35
-23 50 -38 l28 -26 18 24 c14 18 19 20 24 9 7 -19 -30 -78 -50 -78 -20 0 -116
97 -108 110 8 13 11 13 38 -1z m3505 -37 c3 -17 -52 -77 -234 -262 -213 -216
-239 -239 -253 -225 -17 17 -43 -12 272 310 86 88 164 171 173 183 19 27 38
24 42 -6z m-2934 -228 c219 -217 245 -247 230 -258 -14 -11 -47 17 -260 228
-222 219 -269 276 -231 276 7 0 125 -111 261 -246z m1052 133 c2 -14 0 -29 -6
-32 -6 -4 -10 9 -10 31 0 41 8 41 16 1z m2079 -1 c0 -9 -117 -136 -259 -281
-206 -211 -262 -263 -272 -254 -8 6 -14 16 -14 21 0 15 524 538 535 535 6 -2
10 -11 10 -21z m-1878 -8 c-3 -8 -6 -5 -6 6 -1 11 2 17 5 13 3 -3 4 -12 1 -19z
m-1424 -252 c194 -190 256 -257 251 -270 -4 -9 -10 -16 -15 -14 -20 7 -519
510 -519 523 0 8 6 15 13 15 6 0 128 -114 270 -254z m1180 217 c-7 -2 -19 -2
-25 0 -7 3 -2 5 12 5 14 0 19 -2 13 -5z m629 -79 c181 -29 279 -60 433 -133
326 -156 529 -336 708 -630 147 -240 247 -568 247 -811 0 -47 3 -58 18 -61 9
-2 113 -3 230 -1 l212 3 0 34 c0 35 0 35 -45 35 -40 0 -45 -3 -46 -22 l0 -23
-9 23 c-8 18 -17 22 -55 22 -29 0 -45 -4 -46 -12 0 -10 -2 -10 -6 0 -3 7 -24
12 -53 12 -47 0 -49 -1 -53 -32 -4 -32 -4 -32 -5 5 -2 38 -3 38 -33 32 -22 -5
-29 -4 -25 4 4 6 18 11 32 11 22 0 24 4 24 45 l0 45 -37 2 -38 1 38 4 c39 4
39 6 37 81 0 4 -21 5 -45 4 -25 -2 -45 0 -45 5 0 5 19 10 42 12 23 1 43 3 44
4 1 1 4 20 6 42 l3 40 -45 -3 c-24 -2 -48 -8 -52 -15 -4 -7 -8 18 -8 56 0 53
-3 67 -15 67 -8 0 -15 5 -15 10 0 6 7 10 15 10 11 0 15 12 15 45 0 44 -1 45
-32 46 l-33 1 32 9 c28 8 32 14 36 52 l4 42 1 -48 2 -47 43 6 c23 4 43 7 44 8
0 1 3 19 5 41 l3 40 -103 0 c-56 0 -102 3 -102 8 0 4 12 7 28 7 61 0 72 9 72
56 0 28 -4 44 -12 44 -10 0 -9 3 1 9 7 5 31 7 52 5 29 -3 43 1 58 17 18 20 19
20 25 2 5 -17 16 -19 94 -19 l87 1 5 45 c4 33 7 40 13 27 4 -10 7 -32 7 -48
l0 -29 68 1 c101 1 132 8 132 30 0 25 16 24 23 -1 3 -11 12 -20 21 -20 25 0
19 -17 -9 -24 -21 -5 -25 -12 -25 -46 0 -38 2 -40 31 -40 17 0 28 -4 24 -10
-3 -5 -17 -10 -31 -10 -22 0 -24 -4 -24 -45 0 -28 4 -45 12 -45 9 0 9 -3 0
-12 -7 -7 -12 -31 -12 -55 0 -42 1 -43 33 -45 l32 -1 -32 -4 c-32 -4 -33 -5
-33 -54 0 -48 0 -49 33 -51 l32 -1 -32 -4 c-32 -4 -33 -6 -33 -49 0 -43 1 -44
33 -46 l32 -1 -32 -4 c-32 -4 -33 -6 -33 -49 0 -40 2 -44 25 -44 14 0 25 -4
25 -9 0 -4 -12 -6 -26 -3 -25 5 -26 4 -23 -49 l3 -54 -57 -3 -58 -3 3 -35 c1
-25 7 -34 20 -34 13 0 18 -8 18 -25 0 -24 -2 -25 -70 -25 l-70 0 0 -35 c0 -35
0 -35 45 -35 36 0 45 4 45 17 0 15 1 15 13 -1 9 -13 23 -17 52 -14 32 2 40 7
46 30 6 22 3 28 -12 33 -26 8 -25 55 1 78 27 23 38 21 52 -8 9 -20 14 -22 30
-14 23 12 38 4 38 -22 0 -14 -7 -19 -30 -19 -16 0 -30 -4 -30 -9 0 -5 -9 -13
-20 -16 -13 -4 -20 -15 -20 -31 0 -20 5 -24 33 -26 l32 -1 -33 -4 c-33 -4 -33
-5 -30 -51 3 -41 6 -47 25 -47 12 0 25 -4 29 -8 4 -4 -7 -7 -24 -7 -31 0 -32
-1 -32 -45 0 -42 2 -45 28 -46 l27 -1 -25 -7 c-22 -6 -25 -13 -28 -54 -3 -47
-3 -47 30 -49 l33 -1 -32 -4 c-32 -4 -33 -6 -33 -49 0 -42 1 -44 30 -44 17 0
30 -4 30 -10 0 -5 -13 -10 -30 -10 -29 0 -30 -2 -30 -45 0 -42 2 -45 28 -46
l27 -2 -27 -4 c-25 -4 -28 -8 -28 -44 0 -33 4 -41 25 -49 32 -12 32 -34 0 -48
-21 -10 -26 -9 -35 8 -14 27 -100 29 -100 3 0 -9 -3 -13 -6 -10 -4 4 -6 36 -5
72 l2 65 -46 0 -45 0 0 -50 c0 -49 0 -50 33 -52 l32 -1 -32 -4 c-31 -4 -33 -7
-33 -44 0 -21 -5 -39 -11 -39 -6 0 -10 12 -9 28 4 53 6 52 -95 52 l-95 0 -1
-37 -2 -38 -6 35 c-6 33 -8 35 -50 38 -28 2 -47 -1 -52 -10 -7 -10 -9 -10 -10
2 -3 32 3 76 12 90 7 10 9 3 7 -25 l-3 -40 45 0 44 0 1 43 0 43 -84 4 c-84 4
-126 15 -58 15 l37 0 0 44 c0 38 -3 45 -22 49 l-23 4 22 8 c21 7 23 13 22 82
-1 41 2 77 5 80 3 4 6 -8 6 -25 0 -31 1 -32 45 -32 43 0 45 1 46 30 1 17 2 38
3 48 1 14 -10 18 -54 23 l-55 6 53 1 c37 2 52 6 52 16 0 7 3 28 6 45 6 30 5
31 -27 31 -19 0 -41 5 -49 10 -11 7 -4 10 26 10 40 0 42 1 47 37 8 47 3 53
-41 54 l-37 2 34 6 c24 4 37 14 46 36 l13 30 1 -33 c1 -33 2 -33 44 -30 39 3
42 5 45 34 l3 32 -118 4 c-75 2 -121 0 -125 -7 -4 -5 -8 -28 -8 -50 0 -115
-63 -390 -122 -534 -87 -216 -188 -366 -390 -583 -88 -95 -267 -221 -423 -298
-263 -130 -448 -173 -740 -174 -192 0 -268 9 -435 51 -189 47 -419 156 -587
279 -111 80 -273 242 -360 359 -173 231 -323 645 -323 891 0 34 -3 65 -7 67
-5 2 -50 2 -100 -1 l-93 -4 0 -34 0 -34 50 0 c45 0 50 2 50 22 0 12 3 18 7 15
4 -4 6 -36 5 -72 -2 -52 1 -65 13 -65 8 0 15 -4 15 -10 0 -5 -7 -10 -15 -10
-11 0 -15 -12 -15 -45 0 -36 3 -45 18 -45 16 -1 16 -1 0 -11 -13 -7 -18 -23
-18 -54 0 -44 1 -45 33 -47 l32 -1 -32 -4 c-32 -4 -33 -6 -33 -49 l0 -44 45 0
c25 0 45 -4 45 -10 0 -5 -20 -10 -45 -10 l-45 0 0 -45 0 -45 45 0 c44 0 45 1
46 33 l1 32 10 -30 c6 -16 16 -33 22 -37 8 -5 7 -8 -1 -8 -8 0 -13 -16 -14
-42 -1 -24 -3 -34 -6 -23 -14 69 -11 65 -58 65 l-45 0 1 -81 c1 -44 -1 -83 -4
-86 -9 -8 -19 78 -14 119 4 36 4 36 -37 41 -23 2 -45 1 -50 -4 -4 -4 -7 -28
-5 -53 l4 -46 -57 0 -58 0 -2 -42 -1 -43 -4 42 -4 43 -85 -1 c-47 0 -88 2 -92
5 -3 3 11 6 31 6 l37 0 0 45 c0 25 -1 45 -2 46 -2 0 -22 2 -44 5 l-42 5 -4
-46 c-2 -26 0 -48 3 -51 6 -3 0 -54 -6 -54 -1 0 -16 5 -34 11 -24 9 -31 16
-29 33 2 13 11 22 25 24 22 3 23 8 23 93 l0 89 -27 1 -28 1 28 10 c24 9 27 15
27 55 0 43 -1 45 -25 39 -14 -4 -25 -2 -25 4 0 5 11 10 25 10 23 0 25 4 25 45
0 43 -1 45 -30 45 -16 0 -30 5 -30 10 0 6 14 10 30 10 29 0 30 2 30 45 0 44
-1 45 -32 47 l-33 1 32 4 c24 3 34 10 39 28 11 44 1 69 -31 76 -29 6 -29 7 -4
8 20 1 28 7 31 26 6 30 4 32 -50 41 -38 6 -42 9 -42 35 0 30 17 38 37 18 7 -7
17 -2 32 19 16 24 21 45 21 97 0 67 0 67 -25 61 -14 -4 -25 -2 -25 4 0 5 11
10 25 10 23 0 25 4 25 40 0 38 -1 40 -32 40 -37 0 -33 9 5 12 25 2 27 6 27 50
0 47 -1 48 -32 50 l-33 1 33 4 c31 4 32 5 32 54 0 48 0 49 -32 51 l-33 1 33 4
c26 4 32 9 32 29 0 13 5 24 11 24 6 0 9 -6 6 -13 -10 -28 9 -39 52 -32 40 7
41 8 41 46 l0 39 -45 0 c-36 0 -45 -4 -46 -17 -1 -17 -2 -17 -6 0 -3 11 -15
17 -36 18 l-32 1 30 7 c17 3 30 12 29 19 -1 6 -2 26 -2 42 -2 25 -6 30 -27 30
-18 0 -25 5 -25 19 0 12 9 21 25 25 18 5 25 13 25 31 0 37 18 30 22 -7 3 -31
6 -33 46 -36 l42 -3 0 42 c0 54 6 48 12 -13 l6 -48 -54 0 -54 0 0 -51 c0 -48
1 -51 23 -45 12 3 32 6 45 6 19 0 22 6 24 43 l1 42 6 -45 c4 -27 11 -45 19
-44 6 1 28 2 47 3 l35 1 2 83 c0 45 3 67 5 50 4 -32 5 -33 54 -33 l49 0 2 63
1 62 6 -60 6 -60 43 -3 42 -3 0 46 c0 38 -4 47 -22 55 -16 6 -18 9 -6 9 9 1
18 6 20 13 2 6 11 9 20 5 13 -5 15 -17 11 -66 l-6 -61 47 0 46 0 0 60 c0 64
15 84 48 64 21 -13 18 -27 -7 -39 -31 -14 -30 -82 2 -88 24 -5 6 -7 -88 -10
-48 -2 -50 -3 -49 -29 3 -74 0 -70 47 -63 23 4 46 8 51 9 5 0 11 -5 13 -11 4
-10 -22 -13 -106 -13 l-111 0 0 -45 0 -45 45 0 c41 0 45 2 51 28 10 47 12 48
13 10 1 -38 2 -38 44 -40 l42 -1 -42 -4 -43 -4 0 -50 c0 -47 1 -49 28 -50 l27
-1 -29 -7 c-17 -3 -29 -9 -28 -13 1 -5 2 -23 2 -42 0 -28 4 -35 23 -39 l22 -4
-23 -8 c-20 -7 -23 -14 -22 -54 1 -25 1 -69 1 -96 l-1 -51 -52 1 c-53 0 -53 0
-59 -35 l-6 -35 -2 33 c-1 32 -2 32 -51 32 l-50 0 0 -35 0 -35 149 0 149 0 7
78 c38 474 222 862 554 1170 64 60 238 175 340 226 173 87 286 124 476 157
244 42 390 42 627 3z m-2113 -118 c423 -418 428 -423 411 -441 -13 -13 -44 15
-255 226 -132 133 -253 254 -269 269 -18 18 -26 34 -23 44 4 9 10 16 14 16 3
0 59 -51 122 -114z m3751 90 c0 -8 -12 -29 -27 -48 -50 -63 -488 -498 -501
-498 -7 0 -15 7 -19 16 -4 10 73 94 258 280 145 145 269 264 276 264 7 0 13
-6 13 -14z m-3673 -396 c18 -10 42 -38 54 -61 18 -37 20 -48 10 -80 -14 -46
-69 -96 -115 -104 -63 -12 -134 39 -152 109 -10 41 22 114 60 137 40 24 102
24 143 -1z m3602 6 c39 -21 81 -88 81 -131 0 -28 -9 -45 -38 -77 -33 -35 -45
-41 -88 -45 -119 -10 -187 106 -120 207 15 23 37 45 49 50 34 13 85 12 116 -4z
m-3375 -265 c3 -5 -1 -14 -9 -21 -8 -7 -15 -10 -15 -7 0 3 -3 12 -6 21 -7 17
20 23 30 7z m3030 3 c13 -5 14 -9 5 -20 -13 -16 -29 -9 -29 12 0 16 2 16 24 8z
m-3514 -128 c0 -8 -3 -22 -6 -30 -6 -15 -8 -15 -19 1 -9 13 -10 22 -3 30 14
17 28 16 28 -1z m3670 -6 c21 -7 18 -8 -18 -9 -26 -1 -41 3 -37 9 7 11 19 11
55 0z m-3930 -1480 c-19 -13 -30 -13 -30 0 0 6 10 10 23 10 18 0 19 -2 7 -10z
m3894 -95 c3 -9 0 -15 -9 -15 -8 0 -15 7 -15 15 0 8 4 15 9 15 5 0 11 -7 15
-15z m-3309 -5 c3 -5 1 -10 -4 -10 -6 0 -11 5 -11 10 0 6 2 10 4 10 3 0 8 -4
11 -10z m148 -184 c7 -18 -1 -26 -25 -26 -18 0 -25 20 -11 33 11 12 31 8 36
-7z m3061 -4 c3 -5 -1 -9 -9 -9 -8 0 -15 4 -15 9 0 4 4 8 9 8 6 0 12 -4 15 -8z
m-3274 -51 c60 -43 63 -140 5 -198 -28 -28 -40 -33 -79 -33 -36 0 -52 6 -80
30 -60 53 -69 120 -25 182 35 48 124 58 179 19z m3623 4 c53 -37 71 -108 43
-163 -18 -34 -84 -72 -125 -72 -47 0 -111 62 -117 115 -14 101 116 179 199
120z m-3388 -167 c-132 -138 -407 -408 -415 -408 -5 0 -16 -7 -25 -16 -9 -9
-19 -13 -23 -9 -4 4 -1 10 6 12 6 3 12 11 12 18 0 7 111 126 247 264 219 222
249 249 262 236 13 -13 6 -24 -64 -97z m3018 35 c42 -38 157 -152 256 -254
163 -168 202 -219 171 -219 -18 0 -536 514 -532 528 8 23 29 12 105 -55z
m-2793 -91 c0 -12 -513 -519 -537 -531 -19 -10 -23 -9 -23 5 0 10 53 71 118
136 64 65 182 185 262 266 116 118 149 146 163 139 9 -4 17 -11 17 -15z m2844
-246 c153 -151 265 -269 262 -275 -4 -6 -13 -11 -21 -11 -7 0 -131 117 -276
259 -190 187 -260 263 -256 275 4 9 10 16 15 16 5 0 129 -119 276 -264z
m-2715 101 c9 -11 -25 -50 -161 -183 -94 -93 -190 -188 -214 -211 -41 -42 -64
-53 -64 -33 0 14 405 437 421 439 4 1 12 -5 18 -12z m2527 -198 c200 -192 248
-249 213 -249 -7 0 -60 46 -118 103 -59 56 -159 153 -224 216 -72 69 -116 119
-113 127 3 8 9 14 14 14 5 0 108 -95 228 -211z m-219 -21 c38 -36 56 -76 50
-116 -9 -50 -30 -77 -82 -102 -45 -22 -47 -22 -86 -5 -22 10 -49 33 -60 52
-40 65 -11 164 56 194 32 14 95 3 122 -23z m-2173 7 c77 -58 73 -164 -7 -214
-50 -31 -104 -26 -143 14 -19 19 -44 73 -44 95 0 30 25 75 56 99 32 25 109 28
138 6z m1778 -72 c2 -10 0 -34 -5 -53 -8 -29 -6 -37 13 -52 21 -17 22 -20 6
-36 -9 -10 -16 -33 -16 -50 0 -18 -4 -32 -10 -32 -5 0 -10 13 -10 29 0 52 -8
61 -57 61 l-46 0 5 -50 c3 -27 1 -50 -3 -50 -5 0 -9 23 -9 50 l0 50 -45 0 -45
0 0 -57 c0 -31 -2 -54 -4 -52 -9 8 -12 146 -5 165 6 14 8 11 8 -13 1 -32 2
-33 46 -33 42 0 45 2 46 28 l1 27 7 -25 c5 -19 14 -26 41 -28 41 -4 60 16 60
65 0 30 -3 33 -32 35 l-33 1 33 4 c19 3 32 10 32 19 0 20 18 18 22 -3z m-1481
-5 c0 -7 0 -37 -1 -65 l-1 -53 38 -2 38 -1 -37 -4 c-40 -4 -43 -9 -51 -78 -3
-23 -4 -20 -6 12 -1 31 -6 45 -21 53 -11 6 -20 15 -20 20 0 6 9 10 20 10 17 0
20 7 20 40 0 22 -4 40 -10 40 -14 0 -12 27 3 33 21 9 27 8 28 -5z m254 -118
c32 0 45 5 50 18 13 34 22 -11 15 -78 l-7 -65 -1 58 -2 57 -50 0 -50 0 -2 -52
-2 -53 -3 53 -4 52 -49 0 -49 0 -4 -52 -3 -53 -2 60 -2 60 55 -3 55 -4 2 34 1
33 4 -32 c4 -32 6 -33 48 -33z m892 -72 c-2 -24 -4 -7 -4 37 0 44 2 63 4 43 2
-21 2 -57 0 -80z m-97 76 c0 -8 -4 -14 -10 -14 -5 0 -10 9 -10 21 0 11 5 17
10 14 6 -3 10 -13 10 -21z m-633 -6 c-3 -8 -6 -5 -6 6 -1 11 2 17 5 13 3 -3 4
-12 1 -19z m-1549 -20 c2 -16 -1 -28 -7 -28 -18 0 -126 -87 -155 -124 -16 -22
-32 -33 -41 -30 -27 11 -16 31 35 65 27 19 50 39 50 45 0 6 17 32 38 58 43 54
75 59 80 14z m1973 -36 c-4 -80 -11 -79 -11 3 0 38 3 65 7 62 4 -4 5 -33 4
-65z m110 49 c-5 -4 -11 -31 -14 -61 -3 -55 -3 -55 -5 12 -2 58 0 67 14 61 9
-3 12 -8 5 -12z m1682 -25 c20 -25 37 -49 37 -54 0 -5 20 -26 45 -46 43 -36
58 -66 33 -66 -6 0 -32 22 -57 48 -25 27 -68 67 -95 89 -43 36 -48 44 -37 57
21 25 34 20 74 -28z m-1893 19 c16 -19 16 -61 0 -80 -19 -23 -40 0 -40 45 0
51 16 64 40 35z m377 9 c-3 -3 -12 -4 -19 -1 -8 3 -5 6 6 6 11 1 17 -2 13 -5z
m101 -1 c-10 -2 -28 -2 -40 0 -13 2 -5 4 17 4 22 1 32 -1 23 -4z m-691 -70
c-3 -10 -5 -4 -5 12 0 17 2 24 5 18 2 -7 2 -21 0 -30z m100 -15 c-2 -13 -4 -5
-4 17 -1 22 1 32 4 23 2 -10 2 -28 0 -40z m166 -201 c67 -51 84 -131 44 -202
-58 -102 -177 -115 -259 -28 -132 141 61 347 215 230z m465 -124 c-3 -85 -7
-156 -9 -157 -2 -2 -17 -6 -34 -8 l-30 -3 -5 84 -5 84 -40 -54 c-22 -29 -44
-53 -50 -53 -5 0 -26 24 -45 53 l-35 53 -3 -87 -3 -86 -32 3 c-21 2 -34 10
-39 23 -3 11 -6 84 -7 163 l-1 142 35 0 c29 0 39 -6 67 -47 18 -26 40 -61 49
-77 l17 -30 51 80 c50 79 51 80 87 76 l37 -5 -5 -154z m292 126 c0 -28 -2 -29
-45 -29 l-45 0 0 -130 0 -130 -30 0 -29 0 -3 128 -3 127 -42 3 c-40 3 -43 5
-43 32 l0 29 113 3 c61 2 115 2 120 0 4 -2 7 -16 7 -33z m-2370 -4 l0 -35 -85
0 -85 0 0 -30 c0 -29 0 -29 68 -32 l67 -3 3 -32 3 -33 -70 0 -71 0 0 -60 0
-60 -35 0 -35 0 0 160 0 160 120 0 120 0 0 -35z m258 21 c82 -43 103 -124 45
-176 l-32 -28 35 -49 34 -48 -32 -7 c-38 -8 -50 0 -80 53 -19 35 -26 39 -60
39 l-38 0 0 -45 0 -45 -39 0 -40 0 1 160 2 160 88 0 c57 0 99 -5 116 -14z
m380 -18 l-3 -33 -77 -3 -78 -3 0 -29 0 -30 65 0 65 0 0 -30 0 -30 -65 0 -65
0 0 -30 0 -30 80 0 80 0 0 -35 0 -35 -118 0 -118 0 -3 160 -2 160 121 0 121 0
-3 -32z m302 -3 l0 -35 -80 0 -80 0 0 -30 0 -30 70 0 70 0 0 -30 c0 -25 -4
-30 -32 -35 -18 -3 -40 -4 -48 -3 -45 4 -60 -2 -60 -27 0 -25 1 -25 80 -25
l80 0 0 -35 0 -35 -118 0 -118 0 0 160 0 160 118 0 118 0 0 -35z m267 19 c57
-28 88 -78 88 -143 0 -108 -68 -161 -205 -161 l-80 0 0 160 0 160 81 0 c54 0
92 -5 116 -16z m1443 -14 c0 -28 -2 -30 -39 -30 -21 0 -59 -3 -85 -6 -43 -6
-47 -9 -44 -33 3 -23 8 -26 48 -29 76 -4 90 -10 90 -37 0 -23 -3 -24 -67 -27
-65 -3 -68 -4 -71 -29 -3 -23 1 -27 35 -32 21 -4 59 -7 86 -7 46 0 47 -1 47
-30 l0 -30 -116 0 -116 0 3 133 c2 72 5 144 7 160 l4 27 109 0 109 0 0 -30z
m300 10 c51 -26 52 -30 25 -63 l-24 -27 -26 26 c-22 22 -33 25 -63 21 -100
-16 -113 -152 -18 -192 34 -14 59 -7 86 26 14 17 16 17 45 -6 29 -24 29 -25
10 -40 -90 -70 -178 -62 -242 22 -36 48 -40 135 -7 180 53 72 136 93 214 53z
m180 -45 l0 -65 70 0 70 0 0 65 0 65 35 0 35 0 0 -159 0 -159 -30 -4 c-17 -3
-32 -2 -35 0 -3 3 -5 34 -5 69 l0 63 -70 0 -70 0 0 -65 0 -65 -30 0 -30 0 0
160 0 160 30 0 30 0 0 -65z m-1527 -437 c-2 -5 -13 -8 -24 -8 -17 0 -19 -7
-19 -61 0 -52 -2 -60 -17 -57 -14 2 -19 15 -21 60 -3 50 -6 57 -25 60 -12 2
-22 10 -22 18 0 22 117 31 126 10 4 -8 5 -18 2 -22z m197 -29 c0 -82 -58 -125
-107 -80 -36 34 -42 141 -9 141 9 0 15 -18 18 -51 6 -55 18 -75 42 -66 12 5
16 20 16 55 0 50 17 83 32 59 4 -6 8 -33 8 -58z m-870 36 c7 -14 17 -25 21
-25 3 0 14 11 23 25 15 23 46 35 46 18 0 -5 -11 -26 -25 -48 -13 -22 -25 -55
-25 -72 0 -23 -5 -33 -15 -33 -10 0 -15 10 -15 28 0 15 -13 49 -30 75 -35 56
-35 57 -12 57 10 0 25 -11 32 -25z m274 0 c35 -32 34 -69 -3 -106 -37 -37 -74
-38 -106 -3 -72 78 31 181 109 109z m120 -7 c3 -18 7 -44 8 -58 2 -17 10 -26
26 -28 21 -3 22 0 22 57 0 54 2 61 20 61 17 0 20 -7 20 -51 0 -99 -51 -139
-105 -84 -21 20 -25 34 -25 80 0 41 4 55 15 55 8 0 16 -13 19 -32z m660 10
c10 -14 12 -26 7 -31 -6 -6 -4 -19 6 -33 14 -22 13 -25 -11 -49 -25 -25 -51
-30 -93 -19 -21 6 -23 12 -23 80 l0 74 49 0 c40 0 53 -4 65 -22z m204 5 c-2
-13 -14 -19 -41 -21 -47 -4 -49 -22 -1 -22 28 0 35 -3 32 -17 -2 -12 -14 -19
-36 -21 -44 -4 -41 -20 6 -24 25 -2 37 -8 37 -18 0 -11 -14 -16 -57 -18 l-58
-3 0 81 0 80 61 0 c52 0 60 -2 57 -17z m-1510 -58 c-3 -16 -26 -18 -290 -21
-193 -2 -290 1 -294 8 -4 6 -2 13 4 17 6 3 139 8 297 10 269 3 287 2 283 -14z
m2318 4 c3 -6 4 -12 3 -13 -10 -9 -609 -14 -614 -5 -4 5 -3 13 0 19 8 13 602
13 611 -1z"/>
<path d="M2347 5493 c-1 -1 -1 -22 1 -47 l4 -46 44 0 44 0 0 44 0 44 -46 4
c-25 2 -46 2 -47 1z"/>
<path d="M2455 5480 c-3 -5 -3 -25 1 -45 6 -34 8 -35 50 -35 l44 0 0 45 0 45
-44 0 c-25 0 -48 -4 -51 -10z"/>
<path d="M2564 5466 c-12 -48 -2 -61 49 -64 l47 -3 0 45 0 46 -45 0 c-39 0
-45 -3 -51 -24z"/>
<path d="M2670 5445 l0 -45 45 0 45 0 0 45 0 45 -45 0 -45 0 0 -45z"/>
<path d="M2772 5448 l3 -43 44 0 45 0 2 43 2 42 -50 0 -49 0 3 -42z"/>
<path d="M2880 5445 l0 -45 45 0 45 0 0 45 0 45 -45 0 -45 0 0 -45z"/>
<path d="M3190 5445 l0 -45 45 0 45 0 0 45 0 45 -45 0 -45 0 0 -45z"/>
<path d="M3300 5444 l0 -45 43 3 c42 3 42 3 45 46 l3 42 -45 0 -46 0 0 -46z"/>
<path d="M3400 5445 l0 -45 45 0 45 0 0 45 0 45 -45 0 -45 0 0 -45z"/>
<path d="M3500 5458 c0 -49 12 -60 55 -56 38 3 39 4 41 46 l2 42 -49 0 c-49 0
-49 0 -49 -32z"/>
<path d="M3610 5445 l0 -45 45 0 45 0 0 45 0 45 -45 0 -45 0 0 -45z"/>
<path d="M3720 5445 l0 -45 45 0 45 0 0 45 0 45 -45 0 -45 0 0 -45z"/>
<path d="M2774 5381 c-2 -2 -4 -24 -4 -49 0 -36 3 -43 16 -38 9 3 31 6 50 6
33 0 34 1 34 39 l0 39 -46 4 c-25 2 -47 1 -50 -1z"/>
<path d="M2933 5383 l-53 -4 0 -46 0 -45 31 6 c17 3 35 6 40 6 5 0 9 10 9 23
0 12 5 29 10 37 7 11 10 4 10 -27 0 -40 2 -42 33 -46 l32 -4 -32 -1 c-32 -2
-33 -3 -33 -47 0 -45 0 -45 35 -45 l35 0 0 100 0 100 -32 -2 c-18 -1 -57 -3
-85 -5z"/>
<path d="M3506 5380 c-5 -13 0 -80 7 -80 4 0 24 0 45 0 l38 0 -4 39 c-4 37 -6
39 -44 43 -22 2 -40 1 -42 -2z"/>
<path d="M2350 5340 l0 -40 45 0 45 0 0 40 0 40 -45 0 -45 0 0 -40z"/>
<path d="M2450 5335 l0 -45 50 0 50 0 0 40 c0 22 5 40 11 40 6 0 9 -15 7 -37
-3 -42 6 -48 58 -39 32 7 34 9 34 46 l0 40 -105 0 -105 0 0 -45z"/>
<path d="M2672 5338 l3 -43 42 0 43 0 0 43 0 42 -46 0 -45 0 3 -42z"/>
<path d="M3190 5336 l0 -44 45 0 45 0 0 44 0 44 -45 0 -45 0 0 -44z"/>
<path d="M3294 5364 c3 -9 6 -29 6 -45 0 -29 1 -30 43 -27 42 3 42 3 45 46 l3
42 -51 0 c-43 0 -51 -3 -46 -16z"/>
<path d="M3400 5335 l0 -45 45 0 45 0 0 45 0 45 -45 0 -45 0 0 -45z"/>
<path d="M3610 5340 l0 -40 45 0 45 0 0 40 0 40 -45 0 -45 0 0 -40z"/>
<path d="M3714 5358 c3 -13 6 -31 6 -40 0 -15 9 -18 45 -18 l45 0 0 40 0 40
-51 0 c-48 0 -51 -1 -45 -22z"/>
<path d="M2350 5235 l0 -45 45 0 45 0 0 45 0 45 -45 0 -45 0 0 -45z"/>
<path d="M2450 5235 l0 -45 50 0 50 0 0 45 0 45 -50 0 -50 0 0 -45z"/>
<path d="M2564 5264 c3 -9 6 -29 6 -45 0 -28 2 -29 45 -29 l45 0 0 45 0 45
-51 0 c-43 0 -50 -3 -45 -16z"/>
<path d="M2670 5235 l0 -45 45 0 45 0 0 45 0 45 -45 0 -45 0 0 -45z"/>
<path d="M2770 5235 l0 -46 48 3 47 3 0 40 0 40 -47 3 -48 3 0 -46z"/>
<path d="M2880 5235 l0 -45 39 0 c42 0 51 11 51 61 0 28 -2 29 -45 29 l-45 0
0 -45z"/>
<path d="M3190 5235 l0 -45 45 0 45 0 0 45 0 45 -45 0 -45 0 0 -45z"/>
<path d="M3292 5238 l3 -43 45 0 45 0 3 43 3 42 -51 0 -51 0 3 -42z"/>
<path d="M3400 5235 l0 -45 45 0 45 0 0 45 0 45 -45 0 -45 0 0 -45z"/>
<path d="M3502 5238 l3 -43 45 0 45 0 3 43 3 42 -51 0 -51 0 3 -42z"/>
<path d="M3610 5235 l0 -45 45 0 45 0 0 45 0 45 -45 0 -45 0 0 -45z"/>
<path d="M3714 5265 c3 -9 6 -30 6 -46 0 -28 2 -29 46 -29 l45 0 -3 43 -3 42
-49 3 c-42 3 -48 1 -42 -13z"/>
<path d="M2383 5173 c-32 -4 -33 -6 -33 -49 l0 -44 45 0 45 0 0 50 c0 34 -4
49 -12 48 -7 0 -28 -3 -45 -5z"/>
<path d="M2456 5172 c-2 -4 -2 -27 1 -50 l6 -43 41 3 41 3 3 48 3 47 -45 0
c-25 0 -47 -4 -50 -8z"/>
<path d="M2564 5165 c-3 -6 -2 -22 0 -35 2 -14 5 -31 5 -37 1 -8 10 -11 24 -9
12 3 32 5 45 5 19 1 22 6 22 44 l0 44 -46 0 c-25 0 -48 -5 -50 -12z"/>
<path d="M3717 5172 c-2 -4 -3 -25 -3 -47 l1 -40 48 -3 48 -3 -3 47 -3 48 -42
2 c-24 1 -44 -1 -46 -4z"/>
<path d="M3502 5128 c3 -43 3 -43 44 -46 l42 -3 4 45 3 46 -48 0 -48 0 3 -42z"/>
<path d="M3610 5125 l0 -45 45 0 45 0 0 45 0 45 -45 0 -45 0 0 -45z"/>
<path d="M1931 5194 c-28 -36 -27 -79 4 -109 28 -29 45 -31 84 -10 72 37 44
145 -36 145 -22 0 -38 -8 -52 -26z"/>
<path d="M4108 5210 c-24 -15 -42 -74 -29 -99 29 -53 88 -65 126 -26 65 64
-17 171 -97 125z"/>
<path d="M2835 4955 c-278 -42 -505 -127 -715 -267 -255 -170 -445 -409 -566
-710 -85 -213 -117 -386 -116 -623 2 -236 39 -415 131 -638 81 -193 178 -334
351 -507 159 -159 302 -253 545 -358 311 -134 748 -148 1108 -36 213 67 445
210 612 378 127 127 181 195 261 327 108 177 178 371 215 599 28 165 23 411
-11 570 -91 431 -344 806 -687 1019 -283 176 -532 249 -868 256 -113 3 -200 0
-260 -10z m250 -275 c0 -218 -1 -225 -20 -225 -19 0 -20 8 -23 228 l-2 228 22
-3 23 -3 0 -225z m-115 31 c0 -104 3 -202 6 -220 7 -36 11 -34 -106 -51 -150
-23 -338 -97 -419 -166 -45 -39 -47 -39 -90 -18 -42 21 -92 20 -125 -1 l-27
-18 -112 109 c-62 60 -116 115 -121 123 -9 14 -1 22 104 105 201 158 479 274
745 310 55 8 110 14 123 15 l22 1 0 -189z m355 168 c161 -24 404 -111 552
-197 116 -68 274 -191 266 -207 -5 -8 -54 -61 -111 -118 l-102 -105 -38 14
c-43 14 -96 7 -136 -20 -22 -14 -25 -14 -37 0 -21 25 -97 75 -169 110 -98 47
-214 81 -308 89 l-82 8 0 224 0 224 48 -6 c26 -3 79 -11 117 -16z m-1276 -568
c114 -108 120 -115 106 -135 -21 -29 -19 -89 4 -118 l20 -24 -43 -61 c-62 -90
-123 -237 -159 -384 l-31 -129 -213 0 c-117 0 -216 1 -220 3 -17 6 16 211 58
357 35 122 125 312 198 419 60 89 143 192 152 188 4 -1 61 -53 128 -116z
m2191 72 c62 -70 186 -262 225 -347 68 -150 122 -351 140 -521 l6 -60 -218 0
-219 0 -17 90 c-33 180 -104 356 -178 439 -33 38 -35 48 -14 66 22 18 29 77
15 119 l-12 37 107 112 c59 62 111 112 115 112 5 0 27 -21 50 -47z m-997 -18
c122 -18 177 -35 277 -85 480 -240 691 -813 486 -1317 -53 -129 -91 -186 -200
-300 -115 -120 -164 -158 -272 -212 -334 -164 -729 -142 -1039 58 -104 67
-270 238 -324 335 -98 174 -149 398 -135 591 13 175 89 392 181 516 62 83 241
250 313 292 207 120 448 161 713 122z m-924 -164 c20 -13 5 -45 -41 -87 -39
-35 -42 -36 -55 -19 -20 28 -16 50 16 84 29 31 54 38 80 22z m1572 -20 c41
-42 35 -91 -12 -91 -16 0 -89 74 -89 90 0 8 40 28 58 29 8 1 27 -12 43 -28z
m-1931 -816 l0 -25 -245 0 c-231 0 -245 1 -245 18 0 10 3 22 7 25 3 4 114 7
245 7 l238 0 0 -25z m2685 0 c0 -19 -8 -20 -242 -23 l-243 -2 0 25 0 25 243
-2 c234 -3 242 -4 242 -23z m-2694 -147 c2 -166 -3 -693 -7 -700 -3 -4 -14 -3
-25 2 -18 10 -19 24 -20 258 -1 136 -3 239 -6 229 -3 -11 -11 -16 -19 -13 -9
3 -14 -1 -14 -14 0 -13 -5 -18 -15 -14 -9 4 -18 -1 -21 -11 -5 -13 -9 -14 -16
-3 -5 8 -6 -8 -2 -39 l7 -53 -35 0 c-38 0 -57 25 -59 78 0 16 -3 21 -6 12 -4
-8 -12 -21 -20 -28 -11 -11 -13 -9 -13 12 0 35 -27 34 -64 -4 -23 -24 -27 -32
-17 -44 7 -8 8 -17 3 -20 -21 -13 -103 350 -88 389 5 13 37 15 221 15 l215 0
1 -52z m2659 29 c0 -67 -67 -347 -83 -347 -4 0 -6 -4 -3 -9 10 -15 -5 -40 -20
-34 -8 3 -11 9 -8 14 3 5 9 7 13 5 4 -3 8 8 8 25 0 19 -3 25 -9 17 -6 -10 -8
-10 -8 0 0 6 -4 12 -10 12 -5 0 -10 -7 -10 -15 0 -11 -11 -15 -40 -15 -22 0
-40 5 -40 10 0 6 -18 10 -40 10 -23 0 -40 -5 -40 -11 0 -8 -22 -10 -72 -6 -40
3 -62 3 -48 -2 l25 -7 -32 -12 c-23 -7 -33 -8 -33 0 0 5 -7 8 -15 4 -10 -4
-15 1 -16 17 l0 22 -10 -23 c-5 -13 -13 -20 -19 -17 -6 3 -14 -4 -19 -17 -6
-14 -10 -17 -10 -7 -1 9 2 19 6 23 4 3 8 12 9 19 1 7 9 32 17 57 30 86 57 195
57 227 0 17 4 42 9 55 9 23 9 23 225 25 l216 3 0 -23z m-541 -440 c0 -9 -2 -8
-6 1 -2 6 -10 9 -15 6 -7 -4 -8 -2 -4 5 9 13 26 5 25 -12z m-1784 -187 c32
-33 38 -44 29 -58 -20 -31 -56 -26 -93 12 -31 32 -33 38 -23 61 16 36 42 31
87 -15z m1629 18 c26 -41 -35 -107 -88 -94 -36 9 -33 33 11 78 39 40 59 44 77
16z m83 -82 c-1 -19 -6 -31 -10 -27 -7 7 0 61 8 61 2 0 3 -15 2 -34z m-913
-308 c3 -13 6 -119 6 -235 l0 -213 -25 0 -25 0 0 228 c0 126 3 232 7 235 13
14 31 6 37 -15z m-304 -86 c45 -57 9 -152 -58 -152 -34 0 -82 46 -82 78 0 22
-3 22 -140 22 l-140 0 0 25 0 25 138 0 c115 0 144 3 174 19 45 23 82 17 108
-17z m690 12 l31 -27 140 7 139 7 0 -31 0 -31 -132 7 -133 7 -20 -44 c-34 -74
-108 -79 -148 -11 -17 29 -18 39 -8 73 12 39 47 68 83 69 9 0 31 -12 48 -26z"/>
<path d="M2926 4310 c-151 -24 -312 -87 -420 -164 -430 -307 -534 -899 -236
-1336 73 -107 215 -231 332 -291 159 -81 257 -103 463 -103 199 -1 279 16 430
90 613 298 709 1168 177 1595 -112 90 -282 175 -387 194 -104 19 -285 26 -359
15z m320 -79 c414 -85 704 -444 704 -868 0 -240 -76 -440 -227 -603 -159 -171
-314 -249 -561 -281 -167 -22 -350 10 -518 91 -83 40 -116 63 -196 139 -249
236 -335 544 -248 888 48 186 182 382 330 483 110 75 276 142 400 163 69 12
232 5 316 -12z"/>
<path d="M2885 4166 c-231 -60 -393 -164 -509 -326 -129 -181 -186 -402 -152
-597 36 -211 117 -368 252 -492 159 -146 445 -243 647 -221 254 29 396 97 559
268 93 98 132 164 179 303 27 78 33 113 37 209 5 125 -13 249 -48 343 -49 131
-172 295 -275 369 -205 147 -467 202 -690 144z m213 -83 c3 -32 2 -33 -32 -33
-33 0 -36 2 -36 29 0 31 12 41 45 38 15 -2 21 -11 23 -34z m122 -152 c141 -40
255 -119 337 -236 20 -27 64 -79 98 -115 34 -36 92 -100 129 -142 l68 -77 -52
-75 c-71 -103 -313 -358 -390 -412 -90 -63 -227 -105 -340 -106 -99 -1 -221
28 -294 70 -60 35 -166 127 -197 171 -13 19 -46 55 -74 80 -99 90 -182 181
-205 224 l-24 45 44 53 c24 30 77 88 118 129 40 41 98 109 127 151 85 122 206
206 345 243 80 21 231 20 310 -3z m-632 -73 c-47 -40 -64 -49 -66 -35 0 7 -3
21 -7 32 -9 28 48 56 83 41 l24 -10 -34 -28z m1012 23 c24 -46 -7 -67 -45 -31
-23 22 -23 24 -7 36 24 19 40 17 52 -5z m164 -277 c7 -19 2 -18 -19 6 -16 17
-16 20 -3 15 9 -4 19 -13 22 -21z m-1423 -57 c-8 -8 -11 -7 -11 4 0 20 13 34
18 19 3 -7 -1 -17 -7 -23z m1422 -492 c-3 -9 -8 -14 -10 -11 -3 3 -2 9 2 15 9
16 15 13 8 -4z m-87 -117 c4 -7 3 -8 -4 -4 -7 4 -12 1 -12 -9 0 -9 -4 -14 -10
-10 -10 6 -2 35 10 35 5 0 12 -5 16 -12z m-1118 -54 c27 -19 28 -40 3 -53 -25
-14 -56 18 -46 48 8 25 14 26 43 5z m1067 -4 c7 -22 -10 -60 -27 -60 -6 0 -17
-8 -24 -17 -11 -15 -15 -16 -26 -4 -11 12 -11 13 2 6 13 -8 13 -6 2 7 -16 20
-4 49 30 72 29 21 35 20 43 -4z m-527 -229 c4 -25 -11 -41 -40 -41 -22 0 -33
37 -17 56 18 22 53 13 57 -15z"/>
<path d="M2920 3872 c-216 -61 -359 -226 -392 -452 -23 -154 30 -306 146 -423
80 -80 157 -125 254 -148 295 -71 570 84 658 371 18 57 18 210 0 275 -44 165
-178 308 -343 366 -84 30 -238 35 -323 11z m40 -89 c0 -5 -25 -21 -56 -37 -31
-16 -76 -48 -100 -70 -47 -44 -154 -208 -154 -236 0 -10 -7 -20 -15 -24 -45
-17 2 146 66 230 36 47 126 120 162 132 38 12 97 15 97 5z m182 -24 c123 -26
218 -101 275 -217 37 -73 38 -80 38 -182 0 -97 -2 -110 -32 -172 -40 -86 -103
-147 -199 -194 -65 -32 -84 -37 -147 -38 -199 -1 -365 135 -397 326 -15 89 -7
153 30 235 31 67 118 168 179 205 71 44 159 57 253 37z"/>
<path d="M2950 3688 c-69 -27 -161 -116 -195 -190 -20 -43 -25 -69 -25 -136 0
-126 50 -224 150 -290 135 -91 291 -77 411 35 116 109 146 269 77 411 -32 66
-73 108 -146 149 -56 31 -76 37 -141 40 -60 2 -88 -1 -131 -19z m110 -130 c59
-31 83 -66 83 -123 0 -72 -55 -132 -131 -142 -54 -7 -112 29 -142 88 -24 46
-21 83 13 138 37 61 104 76 177 39z m208 -280 c18 -18 15 -42 -9 -72 -23 -29
-50 -33 -73 -10 -21 21 -20 36 5 68 22 27 57 34 77 14z"/>
<path d="M1580 2941 c0 -6 4 -13 10 -16 6 -3 7 1 4 9 -7 18 -14 21 -14 7z"/>
<path d="M2682 2138 c-37 -37 11 -113 57 -88 25 13 38 57 24 79 -13 20 -64 26
-81 9z"/>
<path d="M3382 2138 c-30 -30 7 -105 45 -91 32 11 43 25 43 52 0 34 -17 51
-50 51 -14 0 -31 -5 -38 -12z"/>
<path d="M5158 4172 c-37 -3 -38 -4 -38 -43 l0 -39 45 0 45 0 0 39 c0 46 -2
47 -52 43z"/>
<path d="M5253 4173 c-31 -4 -33 -7 -33 -44 l0 -39 50 0 50 0 0 45 c0 48 3 47
-67 38z"/>
<path d="M4804 4156 c-3 -8 -4 -27 -2 -43 3 -26 6 -28 41 -26 47 2 49 3 50 45
2 32 1 33 -41 36 -30 2 -44 -1 -48 -12z"/>
<path d="M4910 4125 l0 -45 45 0 45 0 0 45 0 45 -45 0 -45 0 0 -45z"/>
<path d="M5018 4129 c-2 -22 -2 -42 1 -45 2 -2 22 -4 43 -4 l38 0 0 45 0 45
-39 0 c-38 0 -39 -1 -43 -41z"/>
<path d="M1060 4025 l0 -45 50 0 50 0 0 45 0 45 -50 0 -50 0 0 -45z"/>
<path d="M1170 4025 l0 -45 51 0 c43 0 50 3 45 16 -3 9 -6 29 -6 45 0 28 -2
29 -45 29 l-45 0 0 -45z"/>
<path d="M4910 4026 l0 -44 41 -4 c22 -2 42 -2 45 1 2 2 4 23 4 46 l0 42 -45
1 -45 1 0 -43z"/>
<path d="M5017 4063 c-4 -3 -7 -24 -7 -45 l0 -38 45 0 45 0 0 45 0 45 -38 0
c-21 0 -42 -3 -45 -7z"/>
<path d="M5120 4025 l0 -45 45 0 45 0 0 45 0 45 -45 0 -45 0 0 -45z"/>
<path d="M5220 4021 l0 -50 38 5 c60 9 62 11 62 54 l0 40 -50 0 -50 0 0 -49z"/>
<path d="M952 3915 l1 -46 46 3 46 3 3 43 3 42 -50 0 -50 0 1 -45z"/>
<path d="M1062 3918 l3 -43 48 -3 47 -3 0 45 0 46 -51 0 -50 0 3 -42z"/>
<path d="M4800 3915 l0 -45 45 0 45 0 0 45 0 45 -45 0 -45 0 0 -45z"/>
<path d="M4910 3914 l0 -45 43 3 c42 3 42 3 45 46 l3 42 -45 0 -46 0 0 -46z"/>
<path d="M5012 3915 l1 -45 43 0 44 0 0 45 0 45 -45 0 -44 0 1 -45z"/>
<path d="M5120 3914 l0 -45 43 3 c42 3 42 3 45 46 l3 42 -45 0 -46 0 0 -46z"/>
<path d="M5220 3914 l0 -45 48 3 47 3 3 43 3 42 -50 0 -51 0 0 -46z"/>
<path d="M849 3856 c-2 -3 -3 -25 -1 -50 l4 -46 44 0 44 0 0 50 0 50 -43 0
c-24 0 -46 -2 -48 -4z"/>
<path d="M956 3852 c-2 -4 -2 -27 1 -51 l6 -42 41 3 41 4 3 47 3 47 -45 0
c-25 0 -47 -4 -50 -8z"/>
<path d="M1060 3820 c0 -49 9 -57 58 -52 l42 4 0 43 0 43 -50 -1 -50 -2 0 -35z"/>
<path d="M1177 3853 c-4 -3 -7 -26 -7 -50 l0 -43 44 0 44 0 4 46 c2 25 1 47
-1 50 -7 7 -77 5 -84 -3z"/>
<path d="M4843 3852 l-43 -3 0 -45 0 -44 44 0 44 0 4 46 c2 25 1 47 -2 47 -3
1 -24 1 -47 -1z"/>
<path d="M5052 3853 l-43 -4 3 -42 c3 -42 3 -42 46 -45 l42 -3 0 50 c0 28 -1
50 -2 49 -2 -1 -22 -3 -46 -5z"/>
<path d="M5133 3853 c-8 -3 -13 -23 -13 -50 l0 -44 43 3 42 4 3 47 3 47 -33
-1 c-18 0 -39 -3 -45 -6z"/>
<path d="M5220 3817 c0 -24 2 -46 5 -49 3 -2 24 -2 47 1 41 6 42 7 43 46 l0
40 -47 3 -48 3 0 -44z"/>
<path d="M4910 3804 l0 -45 43 3 c42 3 42 3 45 46 l3 42 -45 0 -46 0 0 -46z"/>
<path d="M850 3705 l0 -45 45 0 45 0 0 45 0 45 -45 0 -45 0 0 -45z"/>
<path d="M950 3728 c0 -57 10 -68 56 -68 l44 0 0 45 0 45 -50 0 c-45 0 -50 -2
-50 -22z"/>
<path d="M1060 3705 l0 -45 50 0 50 0 0 45 0 45 -50 0 -50 0 0 -45z"/>
<path d="M1172 3708 c3 -43 3 -43 46 -46 l42 -3 0 45 0 46 -46 0 -45 0 3 -42z"/>
<path d="M4938 3743 c-25 -4 -28 -8 -28 -44 l0 -39 45 0 45 0 0 45 c0 48 1 47
-62 38z"/>
<path d="M5048 3743 c-25 -4 -28 -8 -28 -44 0 -39 0 -39 40 -39 l40 0 0 45 c0
30 -4 45 -12 44 -7 -1 -25 -4 -40 -6z"/>
<path d="M5120 3705 l0 -45 45 0 45 0 0 45 0 45 -45 0 -45 0 0 -45z"/>
<path d="M5220 3704 l0 -45 48 3 47 3 3 43 3 42 -50 0 -51 0 0 -46z"/>
<path d="M850 3603 l0 -43 45 0 45 0 0 39 0 39 -45 4 -45 3 0 -42z"/>
<path d="M963 3642 c-10 -6 -11 -27 -4 -74 0 -5 21 -8 46 -8 l45 0 0 40 c0 36
-3 40 -24 40 -13 0 -30 2 -38 5 -7 3 -18 1 -25 -3z"/>
<path d="M1073 3643 c-8 -2 -13 -22 -13 -44 l0 -39 50 0 50 0 0 45 0 45 -37
-1 c-21 0 -44 -3 -50 -6z"/>
<path d="M1177 3644 c-4 -4 -7 -25 -7 -46 l0 -39 47 3 46 3 0 40 c0 39 0 40
-39 43 -22 2 -43 0 -47 -4z"/>
<path d="M4910 3603 l0 -43 45 0 45 0 0 45 0 45 -45 -2 -45 -1 0 -44z"/>
<path d="M5038 3643 c-13 -3 -18 -15 -18 -44 0 -39 0 -39 40 -39 l40 0 0 45
c0 47 -8 52 -62 38z"/>
<path d="M5120 3605 l0 -45 45 0 45 0 0 40 c0 35 -3 40 -22 41 -13 0 -33 2
-45 5 -21 4 -23 0 -23 -41z"/>
<path d="M5220 3606 l0 -46 51 0 50 0 -3 43 -3 42 -47 3 -48 3 0 -45z"/>
<path d="M852 3399 l2 -149 43 0 c43 0 43 0 43 35 0 31 -3 35 -25 35 -26 0
-29 7 -19 34 5 13 22 16 80 16 l74 0 0 35 c0 35 0 35 -44 35 -41 0 -45 -2 -49
-27 l-4 -28 -2 28 c-1 25 -4 27 -48 27 -54 0 -48 17 7 22 32 3 35 5 34 36 -1
17 3 32 8 32 5 0 8 -15 7 -32 -3 -38 -3 -38 51 -38 l40 0 0 44 0 45 -100 0
-100 0 2 -150z"/>
<path d="M1060 3505 l0 -45 50 0 50 0 0 45 0 45 -50 0 -50 0 0 -45z"/>
<path d="M1177 3544 c-4 -4 -7 -25 -7 -46 l0 -39 48 3 47 3 0 40 c0 40 0 40
-40 43 -23 2 -44 0 -48 -4z"/>
<path d="M4910 3521 c0 -16 -3 -36 -6 -45 -5 -13 2 -16 45 -16 l51 0 0 45 0
45 -45 0 c-43 0 -45 -1 -45 -29z"/>
<path d="M5017 3543 c-4 -3 -7 -24 -7 -45 l0 -38 45 0 45 0 0 45 0 45 -38 0
c-21 0 -42 -3 -45 -7z"/>
<path d="M5120 3505 l0 -45 45 0 45 0 0 45 0 45 -45 0 -45 0 0 -45z"/>
<path d="M5220 3499 c0 -48 1 -51 23 -45 12 3 35 6 50 6 27 0 28 2 25 43 l-3
42 -47 3 -48 3 0 -52z"/>
<path d="M954 3298 c3 -13 6 -29 6 -35 0 -9 16 -13 45 -13 44 0 45 1 46 33 l1
32 7 -30 c6 -28 10 -30 54 -33 l47 -3 0 35 0 36 -106 0 c-105 0 -106 0 -100
-22z"/>
<path d="M5010 3285 l0 -36 47 3 c45 3 47 4 49 36 l2 32 -49 0 -49 0 0 -35z"/>
<path d="M888 3232 c-37 -3 -38 -4 -38 -43 0 -36 2 -39 29 -39 16 0 36 -3 45
-6 13 -5 16 1 16 29 0 20 5 39 10 42 6 4 10 -9 10 -32 l0 -38 45 3 45 4 0 42
0 41 -63 0 c-34 0 -79 -1 -99 -3z"/>
<path d="M1103 3232 c-43 -3 -43 -3 -43 -43 l0 -39 50 0 50 0 0 39 c0 22 -3
41 -7 43 -5 2 -27 2 -50 0z"/>
<path d="M1213 3232 c-43 -3 -43 -3 -43 -43 l0 -39 50 0 50 0 0 39 c0 22 -3
41 -7 43 -5 2 -27 2 -50 0z"/>
<path d="M4943 3233 c-31 -4 -33 -7 -33 -43 l0 -39 83 0 c46 0 90 -1 98 -3 10
-2 15 9 17 45 3 52 4 51 -65 38 -24 -5 -43 -4 -43 0 0 5 -6 8 -12 7 -7 0 -28
-3 -45 -5z"/>
<path d="M5153 3233 c-31 -4 -33 -7 -33 -44 l0 -39 45 0 45 0 0 45 c0 30 -4
44 -12 43 -7 0 -28 -3 -45 -5z"/>
<path d="M5253 3233 c-32 -4 -33 -5 -29 -46 l4 -42 43 0 44 0 3 48 c3 51 7 49
-65 40z"/>
<path d="M850 3082 l0 -47 45 3 45 4 0 44 0 44 -45 0 -45 0 0 -48z"/>
<path d="M960 3085 l0 -45 45 0 45 0 0 45 0 45 -45 0 -45 0 0 -45z"/>
<path d="M1060 3084 l0 -45 48 3 47 3 3 43 3 42 -50 0 -51 0 0 -46z"/>
<path d="M1170 3085 l0 -45 45 0 45 0 0 45 0 45 -45 0 -45 0 0 -45z"/>
<path d="M4910 3085 l0 -45 45 0 45 0 0 45 0 45 -45 0 -45 0 0 -45z"/>
<path d="M5019 3126 c-3 -3 -3 -23 -1 -45 4 -40 5 -41 43 -41 l39 0 0 45 0 45
-38 0 c-21 0 -41 -2 -43 -4z"/>
<path d="M5120 3085 l0 -45 45 0 45 0 0 45 0 45 -45 0 -45 0 0 -45z"/>
<path d="M5224 3108 c3 -13 6 -33 6 -45 0 -20 5 -23 45 -23 l45 0 0 45 0 45
-51 0 c-48 0 -51 -1 -45 -22z"/>
<path d="M1198 3023 c-26 -4 -28 -8 -28 -49 l0 -44 45 0 45 0 0 50 c0 54 2 53
-62 43z"/>
<path d="M5058 3022 c-38 -3 -38 -3 -38 -48 l0 -45 42 4 c42 4 43 5 46 44 4
47 1 49 -50 45z"/>
<path d="M5153 3023 c-32 -4 -33 -6 -33 -49 0 -39 3 -44 23 -44 56 0 67 10 67
56 0 29 -4 43 -12 42 -7 0 -28 -3 -45 -5z"/>
<path d="M5257 3023 c-38 -4 -38 -4 -35 -46 l3 -42 45 0 45 0 0 44 c0 48 -2
49 -58 44z"/>
<path d="M850 2975 l0 -46 45 3 45 3 0 43 0 42 -45 0 -45 0 0 -45z"/>
<path d="M958 2979 c-2 -22 -2 -42 1 -45 2 -2 24 -4 48 -4 l43 0 0 45 0 45
-44 0 -44 0 -4 -41z"/>
<path d="M1070 2974 l0 -45 43 3 c42 3 42 3 45 46 l3 42 -45 0 -46 0 0 -46z"/>
<path d="M4910 2975 c0 -43 1 -45 29 -45 50 0 61 9 61 51 l0 39 -45 0 -45 0 0
-45z"/>
<path d="M849 2916 c-3 -3 -3 -23 -1 -45 l4 -41 44 0 44 0 0 45 0 45 -43 0
c-24 0 -46 -2 -48 -4z"/>
<path d="M960 2875 l0 -45 45 0 45 0 0 45 0 45 -45 0 -45 0 0 -45z"/>
<path d="M1096 2913 c-37 -4 -38 -5 -32 -35 3 -17 6 -34 6 -39 0 -5 18 -9 40
-9 37 0 39 2 46 34 6 34 0 58 -14 54 -4 -1 -24 -3 -46 -5z"/>
<path d="M1177 2913 c-4 -3 -7 -24 -7 -45 l0 -38 45 0 45 0 0 45 0 45 -38 0
c-21 0 -42 -3 -45 -7z"/>
<path d="M4827 2913 c-24 -4 -28 -8 -23 -26 3 -12 6 -30 6 -39 0 -14 9 -18 40
-18 37 0 40 2 42 30 0 17 1 36 2 43 1 13 -23 17 -67 10z"/>
<path d="M4910 2875 l0 -45 45 0 45 0 0 45 0 45 -45 0 -45 0 0 -45z"/>
<path d="M5038 2913 c-11 -3 -18 -14 -18 -28 0 -13 -3 -30 -6 -39 -5 -13 2
-16 45 -16 l51 0 0 45 c0 43 -1 45 -27 44 -16 -1 -36 -3 -45 -6z"/>
<path d="M5143 2913 c-19 -4 -23 -11 -23 -44 l0 -39 45 0 45 0 0 45 c0 48 -4
50 -67 38z"/>
<path d="M5250 2911 c-14 -4 -25 -12 -24 -19 1 -7 2 -24 3 -38 1 -23 4 -25 44
-22 42 3 42 3 45 46 3 38 1 42 -20 41 -13 -1 -34 -4 -48 -8z"/>
<path d="M850 2765 l0 -45 45 0 45 0 0 45 0 45 -45 0 -45 0 0 -45z"/>
<path d="M954 2788 c3 -13 6 -33 6 -45 0 -20 5 -23 45 -23 l45 0 0 45 0 45
-51 0 c-48 0 -51 -1 -45 -22z"/>
<path d="M1060 2765 l0 -45 50 0 50 0 0 45 0 45 -50 0 -50 0 0 -45z"/>
<path d="M1172 2768 c3 -43 3 -43 46 -46 l42 -3 0 45 0 46 -46 0 -45 0 3 -42z"/>
<path d="M4800 2781 c0 -50 9 -61 51 -61 26 0 39 4 39 14 0 7 3 28 6 45 l7 31
-52 0 c-50 0 -51 -1 -51 -29z"/>
<path d="M4910 2765 l0 -45 45 0 45 0 0 45 0 45 -45 0 -45 0 0 -45z"/>
<path d="M5020 2764 l0 -45 43 3 c42 3 42 3 45 46 l3 42 -45 0 -46 0 0 -46z"/>
<path d="M5120 2765 l0 -45 45 0 45 0 0 45 0 45 -45 0 -45 0 0 -45z"/>
<path d="M5225 2768 c4 -24 8 -44 9 -45 1 -1 20 1 44 4 41 6 42 6 42 44 l0 39
-51 0 -51 0 7 -42z"/>
<path d="M957 2703 c-2 -4 -5 -27 -6 -50 l-1 -43 38 0 c53 0 64 11 60 56 -3
37 -4 39 -45 42 -22 2 -43 0 -46 -5z"/>
<path d="M1063 2694 c-2 -7 -3 -27 -1 -46 3 -32 5 -33 51 -36 l48 -3 -3 48 -3
48 -44 0 c-24 0 -45 -5 -48 -11z"/>
<path d="M4948 2702 c-38 -3 -38 -4 -38 -48 l0 -44 45 0 45 0 0 44 c0 25 -3
46 -7 48 -5 2 -25 2 -45 0z"/>
<path d="M5229 2708 c-1 -2 -2 -24 -3 -50 -1 -45 0 -48 24 -48 59 0 70 9 70
56 l0 44 -45 0 c-25 0 -46 -1 -46 -2z"/>
<path d="M5020 2655 l0 -45 38 0 c21 0 41 2 43 4 3 3 3 23 1 45 -4 40 -5 41
-43 41 l-39 0 0 -45z"/>
<path d="M1207 4538 c-9 -7 -21 -26 -27 -42 -14 -39 14 -96 53 -109 59 -19
126 40 111 98 -13 53 -95 84 -137 53z"/>
<path d="M4824 4535 c-12 -8 -27 -27 -33 -44 -10 -24 -10 -34 3 -60 30 -56 94
-69 140 -26 30 27 33 53 11 95 -25 49 -79 65 -121 35z"/>
<path d="M1191 2324 c-31 -39 -27 -77 10 -108 17 -14 42 -26 55 -26 35 0 74
42 74 80 0 72 -96 109 -139 54z"/>
<path d="M4831 2324 c-37 -31 -41 -69 -10 -108 28 -35 80 -36 114 -1 39 38 27
102 -22 124 -35 16 -48 14 -82 -15z"/>
<path d="M4106 1749 c-20 -16 -26 -29 -26 -60 0 -74 74 -106 125 -54 33 33 32
70 -4 106 -35 34 -59 36 -95 8z"/>
<path d="M1935 1745 c-31 -30 -32 -73 -4 -109 41 -52 129 -16 129 54 0 38 -39
80 -75 80 -14 0 -37 -11 -50 -25z"/>
<path d="M2985 1245 c-39 -38 -37 -88 6 -127 49 -46 109 -33 135 28 37 89 -73
167 -141 99z"/>
<path d="M1660 1225 l0 -45 38 1 c58 2 87 13 90 36 5 34 -24 53 -79 53 l-49 0
0 -45z"/>
<path d="M2613 1180 l2 -90 38 0 c49 0 73 13 92 50 22 43 19 68 -14 101 -24
23 -38 29 -74 29 l-45 0 1 -90z"/>
<path d="M2648 821 c-21 -18 -21 -19 -5 -45 29 -43 83 -26 75 25 -4 32 -42 42
-70 20z"/>
<path d="M3430 820 c0 -5 9 -10 19 -10 11 0 23 5 26 10 4 6 -5 10 -19 10 -14
0 -26 -4 -26 -10z"/>
<path d="M3437 774 c-15 -15 -6 -24 23 -24 17 0 30 5 30 10 0 6 -4 10 -9 10
-5 0 -16 2 -23 5 -8 3 -17 2 -21 -1z"/>
</g>
</svg>
